<svg width="34" height="35" viewBox="0 0 34 35" fill="none" xmlns="http://www.w3.org/2000/svg">
<g clip-path="url(#clip0)">
<path d="M17 9.82031L4.87406 19.8169C4.87406 19.831 4.87051 19.8517 4.86342 19.88C4.85648 19.9081 4.85278 19.9285 4.85278 19.943V30.0655C4.85278 30.431 4.98641 30.7478 5.25358 31.0145C5.52067 31.2814 5.83696 31.4157 6.20252 31.4157H14.3004V23.3174H19.6997V31.416H27.7975C28.1629 31.416 28.4797 31.282 28.7464 31.0145C29.0136 30.7481 29.1476 30.4311 29.1476 30.0655V19.943C29.1476 19.8868 29.1399 19.8444 29.1264 19.8169L17 9.82031Z" fill="#439FD9"/>
<path d="M33.7654 17.5392L29.1472 13.701V5.09668C29.1472 4.89998 29.084 4.73821 28.9571 4.61161C28.8312 4.48515 28.6695 4.42192 28.4723 4.42192H24.4233C24.2264 4.42192 24.0647 4.48515 23.938 4.61161C23.8117 4.73821 23.7485 4.90005 23.7485 5.09668V9.20899L18.6029 4.9067C18.1535 4.54114 17.6192 4.3584 17.0005 4.3584C16.3819 4.3584 15.8476 4.54114 15.3978 4.9067L0.234342 17.5392C0.0937761 17.6515 0.0167347 17.8026 0.00240486 17.9925C-0.0118511 18.1821 0.0372692 18.3478 0.149914 18.4883L1.4574 20.0489C1.57005 20.1754 1.71748 20.2527 1.9003 20.281C2.06908 20.2952 2.23786 20.2459 2.40664 20.1334L17 7.96473L31.5936 20.1334C31.7063 20.2315 31.8537 20.2804 32.0365 20.2804H32.0999C32.2824 20.2527 32.4295 20.1748 32.5428 20.0486L33.8504 18.4882C33.9628 18.3475 34.0121 18.1821 33.9975 17.9922C33.983 17.8028 33.9057 17.6517 33.7654 17.5392Z" fill="#439FD9"/>
</g>
<defs>
<clipPath id="clip0">
<rect width="34" height="34" fill="white" transform="translate(0 0.887207)"/>
</clipPath>
</defs>
</svg>
