<svg width="24" height="22" viewBox="0 0 24 22" fill="none" xmlns="http://www.w3.org/2000/svg">
<g clip-path="url(#clip0)">
<path d="M11.8465 7.4126C13.8726 7.4126 15.5189 8.98043 15.5189 10.9101C15.5189 12.8397 13.8726 14.4075 11.8465 14.4075C9.8204 14.4075 8.17419 12.8397 8.17419 10.9101C8.17419 8.98043 9.8204 7.4126 11.8465 7.4126ZM12.1251 9.87289C12.581 9.87289 12.9609 10.2347 12.9609 10.6689H14.1766C14.1512 9.58344 13.2395 8.7151 12.1251 8.7151V9.87289Z" fill="#439FD9"/>
<path d="M0.702867 10.1866C1.94386 8.71525 6.376 3.91528 11.8465 3.91528C17.317 3.91528 21.7492 8.71525 22.9902 10.1866C23.3447 10.5966 23.3447 11.1997 22.9902 11.6338C21.7492 13.1052 17.317 17.9051 11.8465 17.9051C6.376 17.9051 1.94386 13.1052 0.702867 11.6338C0.348296 11.2238 0.348296 10.6208 0.702867 10.1866ZM11.8465 15.9755C14.7844 15.9755 17.1651 13.7082 17.1651 10.9102C17.1651 8.11224 14.7844 5.84492 11.8465 5.84492C8.90864 5.84492 6.52796 8.11224 6.52796 10.9102C6.52796 13.7082 8.90864 15.9755 11.8465 15.9755Z" fill="#439FD9"/>
</g>
<defs>
<clipPath id="clip0">
<rect width="22.8191" height="21.7325" fill="white" transform="matrix(-1 0 0 1 23.2561 0.0439453)"/>
</clipPath>
</defs>
</svg>
